<svg id="Layer_1" enable-background="new 0 0 512 512" height="512" viewBox="0 0 512 512" width="512" xmlns="http://www.w3.org/2000/svg"><g><g><g><g><g><g><g><g><g><g><g><g><circle cx="256" cy="256" fill="#57545c" r="256"/></g></g></g></g></g></g></g></g></g></g></g><path d="m512 256c0-16.44-1.569-32.512-4.53-48.09l-88.995-88.994-316.502 114.277 72.199 72.385-37.145 134.281 66.818 66.818c16.84 3.485 34.282 5.323 52.155 5.323 141.385 0 256-114.615 256-256z" fill="#262628"/><g><path d="m438.154 171.82c0-44.758-36.284-81.042-81.042-81.042-6.088 0-12.012.693-17.717 1.966-17.48-27.616-48.295-45.955-83.396-45.955s-65.915 18.339-83.396 45.955c-5.704-1.273-11.627-1.965-17.715-1.965-44.759 0-81.042 36.284-81.042 81.042 0 43.409 34.13 78.844 77.02 80.941v151.744h210.268v-151.746c42.89-2.097 77.02-37.531 77.02-80.94z" fill="#fff"/><path d="m438.15 171.82c0 43.41-34.13 78.84-77.02 80.94v151.74h-105.13v-357.71c35.1 0 65.91 18.34 83.39 45.95 5.71-1.27 11.63-1.96 17.72-1.96 44.76 0 81.04 36.28 81.04 81.04z" fill="#defaf7"/><g><path d="m137.027 356.776h237.946v83.082h-237.946z" fill="#b2feff"/><path d="m256 356.775h118.973v83.08h-118.973z" fill="#4dfaff"/></g></g></g></svg>